<svg width="38" height="38" viewBox="0 0 40 39" fill="none" xmlns="http://www.w3.org/2000/svg"><path fill-rule="evenodd" clip-rule="evenodd" d="M20.067.403C9.137.403.285 9.256.285 20.186c0 8.753 5.663 16.147 13.526 18.768.99.173 1.36-.42 1.36-.94 0-.47-.024-2.027-.024-3.684-4.97.915-6.257-1.212-6.652-2.324-.223-.57-1.187-2.325-2.028-2.795-.692-.37-1.681-1.285-.025-1.31 1.558-.025 2.67 1.434 3.042 2.027 1.78 2.993 4.624 2.152 5.761 1.633.174-1.286.693-2.152 1.262-2.646-4.402-.495-9.001-2.201-9.001-9.768 0-2.151.766-3.932 2.027-5.316-.198-.495-.89-2.523.198-5.243 0 0 1.657-.519 5.44 2.028a18.355 18.355 0 014.946-.668c1.681 0 3.363.223 4.945.668 3.784-2.572 5.44-2.028 5.44-2.028 1.089 2.72.396 4.748.198 5.243 1.262 1.384 2.028 3.14 2.028 5.316 0 7.592-4.624 9.273-9.026 9.768.717.618 1.336 1.805 1.336 3.66 0 2.645-.025 4.772-.025 5.44 0 .519.37 1.137 1.36.94 7.814-2.622 13.477-10.04 13.477-18.77C39.85 9.256 30.997.404 20.067.404z" fill="#7B4AE2" fill-opacity=".5"/></svg>