<svg xmlns="http://www.w3.org/2000/svg" viewBox="0 0 256 256" width="48" height="48"><g fill="none" stroke-miterlimit="10" font-family="none" font-weight="none" font-size="none" text-anchor="none" style="mix-blend-mode:normal"><path d="M32 53.333C32 41.552 41.552 32 53.333 32h149.334C214.447 32 224 41.552 224 53.333v149.334c0 11.78-9.552 21.333-21.333 21.333H53.333C41.552 224 32 214.448 32 202.667z" fill="#7b4ae2"/><path d="M106.752 102.261H96.075v23.648h10.522c2.918 0 5.174-.954 6.774-2.864 1.6-1.91 2.394-4.688 2.394-8.336 0-3.786-.816-6.794-2.448-9.034-1.632-2.24-3.824-3.376-6.565-3.414z" fill="#ebf8ff"/><path d="M48 48v160h160V48zm76.613 84.208c-4.405 4.31-10.517 6.459-18.33 6.459H96.075v26.666H80.763V89.5h25.834c7.499 0 13.483 2.33 17.942 6.98 4.458 4.652 6.693 10.694 6.693 18.124 0 7.429-2.208 13.296-6.619 17.605zm49.69 29.584c-3.78 3.056-8.751 4.581-14.895 4.581-4.133 0-7.781-.805-10.939-2.421-3.157-1.616-5.637-3.867-7.424-6.747-1.786-2.88-2.682-5.99-2.682-9.322h14.01c.075 2.565.667 4.496 1.798 5.78 1.13 1.286 2.976 1.926 5.546 1.926 3.958 0 5.936-1.786 5.936-5.365 0-1.248-.597-2.405-1.797-3.461s-3.856-2.486-7.99-4.294c-6.074-2.464-10.25-5.013-12.527-7.658-2.278-2.646-3.414-5.92-3.414-9.846 0-4.933 1.782-9.002 5.339-12.213 3.557-3.21 8.277-4.816 14.139-4.816 6.176 0 11.125 1.6 14.842 4.79 3.718 3.189 5.574 7.482 5.574 12.863h-14.742c0-4.581-1.904-6.874-5.728-6.874-1.562 0-2.842.485-3.856 1.456-1.013.97-1.51 2.33-1.51 4.064 0 1.248.556 2.352 1.67 3.306 1.115.955 3.728 2.32 7.867 4.09 6.01 2.225 10.25 4.7 12.736 7.425 2.485 2.725 3.723 6.261 3.723 10.597 0 5.04-1.894 9.083-5.675 12.139z" fill="#ebf8ff"/></g></svg>