<svg width="64" height="64" fill="none" xmlns="http://www.w3.org/2000/svg"><g clip-path="url(#clip0_21_3162)"><path fill-rule="evenodd" clip-rule="evenodd" d="M21.417 0C15.529 0 10.75 4.779 10.75 10.667s4.779 10.666 10.667 10.666c-5.888 0-10.667 4.779-10.667 10.667s4.779 10.667 10.667 10.667c-5.888 0-10.667 4.778-10.667 10.666C10.75 59.221 15.529 64 21.417 64s10.666-4.779 10.666-10.667V32c0 5.888 4.779 10.667 10.667 10.667S53.417 37.888 53.417 32 48.638 21.333 42.75 21.333c5.888 0 10.667-4.778 10.667-10.666C53.417 4.779 48.638 0 42.75 0H21.417zM42.75 21.333H32.083V32c0-5.888 4.779-10.667 10.667-10.667z" fill="#7B4AE2" fill-opacity=".5"/></g><defs><clipPath id="clip0_21_3162"><path fill="#fff" d="M0 0h64v64H0z"/></clipPath></defs></svg>