<svg width="64" height="64" fill="none" xmlns="http://www.w3.org/2000/svg"><path fill-rule="evenodd" clip-rule="evenodd" d="M32 1.5C14.743 1.5.75 15.49.75 32.75c0 13.807 8.954 25.521 21.37 29.654 1.563.289 2.136-.678 2.136-1.504 0-.745-.029-3.207-.042-5.818-8.694 1.89-10.529-3.687-10.529-3.687-1.421-3.612-3.47-4.573-3.47-4.573-2.835-1.94.214-1.9.214-1.9 3.138.221 4.79 3.221 4.79 3.221 2.788 4.777 7.311 3.396 9.094 2.598.28-2.02 1.09-3.398 1.985-4.179-6.942-.79-14.238-3.47-14.238-15.444 0-3.412 1.22-6.2 3.22-8.388-.325-.787-1.394-3.965.302-8.27 0 0 2.624-.84 8.596 3.203 2.493-.692 5.166-1.04 7.822-1.051 2.656.012 5.331.359 7.829 1.051 5.965-4.043 8.585-3.203 8.585-3.203 1.701 4.305.63 7.483.306 8.27 2.004 2.189 3.217 4.976 3.217 8.388 0 12.003-7.311 14.646-14.27 15.42 1.121.969 2.12 2.87 2.12 5.786 0 4.182-.036 7.547-.036 8.576 0 .832.562 1.806 2.146 1.5 12.41-4.137 21.353-15.847 21.353-29.65C63.25 15.49 49.259 1.5 32 1.5zM12.454 46.017c-.069.155-.313.201-.535.095-.227-.102-.354-.314-.28-.47.066-.16.311-.204.537-.097.227.102.357.316.278.472zm1.537 1.371c-.149.138-.44.074-.638-.144-.204-.218-.242-.51-.091-.65.153-.138.436-.073.64.145.205.22.245.51.09.65zm1.055 1.755c-.191.133-.505.008-.698-.27-.192-.277-.192-.61.004-.744.194-.134.502-.014.699.262.19.283.19.616-.005.752zm1.783 2.033c-.17.188-.536.138-.803-.12-.273-.252-.349-.61-.177-.798.173-.19.54-.137.81.12.27.25.353.61.17.798zm2.305.686c-.075.244-.427.356-.78.252-.354-.107-.585-.394-.514-.641.074-.247.427-.363.783-.251.353.106.585.39.511.64zm2.624.29c.008.258-.292.472-.663.477-.374.008-.676-.2-.68-.454 0-.26.293-.472.667-.478.371-.007.676.2.676.456zm2.576-.098c.045.252-.213.51-.582.578-.363.067-.699-.088-.745-.338-.045-.258.218-.516.58-.583.37-.064.7.087.747.343z" fill="#7B4AE2" fill-opacity=".5"/></svg>