<svg width="32" height="32" fill="none" xmlns="http://www.w3.org/2000/svg"><circle cx="16" cy="16" r="16" fill="#7B4AE2" fill-opacity=".5"/><path fill-rule="evenodd" clip-rule="evenodd" d="M13.475 9.84H7.839a.4.4 0 00-.4.4v.407c0 .22.18.4.4.4h8.853c-.224 1.299-.906 2.502-1.612 3.444a12.715 12.715 0 01-1.128 1.308 38.15 38.15 0 01-.862-1.16c-.317-.446-.57-.763-.854-1.3a10.933 10.933 0 01-.268-.563.202.202 0 00-.184-.12l-.936-.003a.198.198 0 00-.181.28c.262.572.414.818.525 1.01.255.441.59.937.915 1.395.328.46.655.893.899 1.21l.055.07-3.868 3.446a.6.6 0 00-.007.89l.088.08a.6.6 0 00.815-.002l3.768-3.508c.252.236.627.564 1.165.981.375.292.876.6 1.267.827.135.08.355.202.523.294a.2.2 0 00.277-.09l.343-.73a.2.2 0 00-.084-.26c-.142-.08-.325-.181-.452-.256a11.274 11.274 0 01-1.135-.738c-.463-.358-.79-.64-1.012-.845l.086-.087c.328-.332.766-.812 1.21-1.406.789-1.052 1.635-2.513 1.867-4.167h1.851a.4.4 0 00.4-.4v-.406a.4.4 0 00-.4-.4h-5.082V8.23h-1.206v1.61zm6.632 4.344l1.127-.01L25 23.759h-1.242l-.98-2.358h-4.076l-.85 2.368h-1.32l3.575-9.585zm-.955 6.011h3.152l-1.617-4.114-1.535 4.114z" fill="#000" fill-opacity=".5"/><defs><radialGradient id="paint0_radial_1_50" cx="0" cy="0" r="1" gradientUnits="userSpaceOnUse" gradientTransform="matrix(-11.82302 16.27 -20.56027 -14.94065 19.06 6.88)"><stop stop-color="#212225"/><stop offset="1" stop-color="#1F2025"/></radialGradient><radialGradient id="paint1_radial_1_50" cx="0" cy="0" r="1" gradientUnits="userSpaceOnUse" gradientTransform="matrix(-7.86886 11.84583 -14.50825 -9.63743 24.266 13.19)"><stop stop-color="#212225"/><stop offset="1" stop-color="#1F2025"/></radialGradient></defs></svg>