<svg width="57" height="64" fill="none" xmlns="http://www.w3.org/2000/svg"><path fill-rule="evenodd" clip-rule="evenodd" d="M0 0l5.136 57.602L28.183 64l23.11-6.407L56.434 0H0zm46.915 53.968L28.265 59.1v-7.331l-.057.013-14.496-4.014-.99-11.085h7.093l.515 5.627 7.88 2.116.055-.008V33.014h-15.89l-.62-7.054 16.51-7.066v-.488H11.128l-.626-7.054h17.763V4.797h23.02l-4.37 49.171z" fill="#7B4AE2" fill-opacity=".5"/><path fill-rule="evenodd" clip-rule="evenodd" d="M29.403 18.406l-1.138.488v14.12h8.627l-.784 9.223-7.843 2.186v7.35l14.447-4.014 1.903-21.8h-16.35l16.992-7.553.606-7.054H28.265v7.054h1.138z" fill="#7B4AE2" fill-opacity=".5"/></svg>