<svg width="65" height="64" fill="none" xmlns="http://www.w3.org/2000/svg"><path fill-rule="evenodd" clip-rule="evenodd" d="M62.794 29.149L34.85 1.207a4.121 4.121 0 00-5.828 0L23.219 7.01l7.36 7.36a4.893 4.893 0 016.2 6.24l7.093 7.094a4.897 4.897 0 015.068 1.165 4.903 4.903 0 010 6.935 4.904 4.904 0 01-8.005-5.334l-6.616-6.616v17.41c.467.232.908.54 1.297.927a4.905 4.905 0 11-5.33-1.07V23.55a4.903 4.903 0 01-2.662-6.432l-7.256-7.256L1.208 29.02a4.123 4.123 0 000 5.83l27.944 27.943a4.122 4.122 0 005.829 0L62.794 34.98a4.125 4.125 0 000-5.831z" fill="#7B4AE2" fill-opacity=".5"/></svg>