<svg width="64" height="64" fill="none" xmlns="http://www.w3.org/2000/svg"><path fill-rule="evenodd" clip-rule="evenodd" d="M.75 8.75a8 8 0 018-8h46.5a8 8 0 018 8v46.5a8 8 0 01-8 8H8.75a8 8 0 01-8-8V8.75zm16.433 44.23c1.385 2.936 4.113 5.37 8.81 5.37 5.203 0 8.77-2.77 8.77-8.853V32.38a2.937 2.937 0 10-5.873 0v17.034c-.001 2.936-1.218 3.691-3.148 3.691-2.807 0-5.762-1.818-8.164-.364l-.394.239zm27.322-1.236c-1.187-1.013-2.848-1.539-4.2-.756-1.32.764-1.843 2.464-.834 3.609 1.97 2.233 5.011 3.753 9.18 3.753 5.58 0 9.733-2.895 9.733-8.181 0-4.909-2.811-7.09-7.804-9.23l-1.468-.63c-2.517-1.09-3.608-1.803-3.608-3.566 0-1.426 1.09-2.517 2.811-2.517.716 0 1.326.13 1.867.42 1.375.734 3.016 1.386 4.328.544 1.208-.776 1.638-2.405.655-3.452-1.759-1.872-3.999-2.63-6.85-2.63-5.245 0-8.6 3.356-8.6 7.761 0 4.783 2.81 7.049 7.048 8.852l1.468.63c2.685 1.174 4.279 1.888 4.279 3.901 0 1.679-1.552 2.895-3.985 2.895-1.724 0-3.002-.535-4.02-1.403z" fill="#7B4AE2" fill-opacity=".5"/></svg>