<svg width="56" height="64" fill="none" xmlns="http://www.w3.org/2000/svg"><path fill-rule="evenodd" clip-rule="evenodd" d="M17.21 39.163c-1.018.636-2.55 1.666-3.736 2.787-1.947 1.838-2.354 4.388-1.327 4.984.95.55 3.167-.105 4.754-1.836 1.666-1.817 2.352-4.121 1.643-6.736-.083.05-.165.099-.245.145l.001.004-.107.06-.984.592zm28.583-.826c-.576 1.252-.605 1.655-.43 1.78.836-.3 2.22-1.023 2.23-2.963a3.072 3.072 0 00-.165-.928c-.893.791-1.409 1.62-1.635 2.111zm8.971-3.786c-2.233-.26-3.976.053-5.328.617.25.652.443 1.33.47 2.015.063 1.501-.97 2.612-2.048 3.405a6.797 6.797 0 01-1.86.957c-.449.19-1.046.385-1.47.299-.934-.19-1.43-1.02-.795-2.85.343-.99 1.333-2.498 2.931-3.797-.364-.75-.77-1.514-.977-2.216-.408-1.384-.53-2.22-.53-2.22s-1.318 2.73-3.018 5.215l-.293.427c.333.775.596 1.596.632 2.423.063 1.5-.587 2.636-1.666 3.427a6.791 6.791 0 01-1.74.917c-.343.15-1.037.395-2.026.461-.54.037-1.06.004-1.35-.217-.4-.302-.448-.674-.241-1.183.175-.432 1.484-1.927 2.581-3.235.304-.361.593-.73.85-1.073l-.006-.014s.2-.257.522-.705c-.401-.864-.91-1.763-1.149-2.579-.408-1.383-.531-2.22-.531-2.22s-1.335 3.423-2.726 6.156c-1.077 2.116-1.796 3.399-2.12 3.96l-.003.023s-.048.082-.132.21l-.062.105-.002-.01c-.361.534-1.171 1.578-1.977 1.578-2.21 0-1.4-4.49-1.4-4.49s-.646 1.663-1.374 3.09c-.594 1.164-1.134 2.15-2.317 2.15-.34 0-.88-.01-1.327-.435-1.016-.965-1.792-3.415-1.64-5.313.13-1.613.379-2.73.719-3.663-.607.33-1.308.722-2.022 1.141l-1.098.647.036.064c.908 1.757 1.15 5.605-.83 8.56s-5.665 4.754-9.256 3.755c-1.16-.323-2.91-2.72-1.4-6.061 1.332-2.946 6.654-5.732 8.057-6.427l.385-.212c-2.797-2.447-9.78-5.748-10.759-10.818-.276-1.428.393-4.841 4.585-8.765 3.525-3.3 8.428-5.827 12.958-7.437 7.61-2.705 15.651-1.11 16.888 3.743 1.217 4.771-2.923 10.48-8.225 12.531-4.733 1.832-8.647 1.541-10.255 1.013-1.827-.6-2.9-1.806-3.16-2.487-.103-.266-.28-.714 0-.868.171-.095.24-.072.699.435.436.482 2.192 1.774 5.526 1.4 8.75-.981 14.02-7.784 12.355-11.445-1.166-2.562-7.91-3.718-16.336.483-10.285 5.129-10.844 9.356-10.932 10.962-.24 4.417 5.448 6.74 8.525 10.025l.119.13c.576-.318 1.184-.654 1.781-.981 1.552-.853 3.015-1.653 3.697-2.025 1.083-1.575 3.281-3.312 4.868-3.312 2.537 0 1.666 3.646 1.666 3.646s.051-.167.12-.168c.072-.002.352-.48 1.135-.195.805.296.622.86.627.919.01.112-.951 3.354-1.35 5.433-.192.992-.081 1.715-.025 1.715.079 0 .24-.253.389-.524l-.004-.008s.112-.205.3-.575l.037-.077.002.004c.221-.434.532-1.071.892-1.861.704-1.553 3.392-7.546 3.62-8.21.227-.662.346-1.348.459-1.642.11-.294 1.06-.515 2.17-.507 1.111.008 1.224.481 1.231.58.008.097-.527 1.412-.651 2.342-.122.93-.005 1.393.096 2.174.066.51.385 1.157.763 1.891 1.149-1.879 3.17-5.472 3.364-6.478.133-.69.347-1.349.46-1.643.111-.294 1.06-.515 2.17-.507 1.11.008 1.223.481 1.23.58.009.097-.529 1.412-.65 2.342-.123.928-.005 1.394.096 2.174.086.668.603 1.565 1.115 2.586a11.215 11.215 0 014.968-1.16c.797-.005 1.723.075 2.201.224v-15.36a3.005 3.005 0 00-1.493-2.623L29.447.405a3.014 3.014 0 00-3.021 0L1.438 14.882C.5 15.422 0 16.422 0 17.505v28.978c0 1.082.504 2.082 1.44 2.623l25.028 14.487a2.985 2.985 0 003.01 0l25.04-14.487c.936-.543 1.482-1.542 1.482-2.623V34.772c-.318-.094-.783-.168-1.236-.22zm-26.957-1.517c-.537.602-1.453 2.154-1.882 3.454-.852 2.58-.483 5.202.12 5.36.705.184 1.86-3.265 2.413-4.614.347-.844 1.695-4.593 1.4-5.094-.23-.392-1.186-.075-2.05.894zm9.749 8.696s-.17.16-.097.205c.1.06.315-.017.549-.14.663-.416 2.15-1.457 2.153-2.997a2.08 2.08 0 00-.005-.135 60.25 60.25 0 01-.937 1.198c-.468.583-1.663 1.869-1.663 1.869z" fill="#7B4AE2" fill-opacity=".5"/></svg>