<svg width="38" height="38" fill="none" xmlns="http://www.w3.org/2000/svg"><g clip-path="url(#clip0_21_3379)"><path d="M19 0c10.494 0 19 8.507 19 19s-8.506 19-19 19S0 29.493 0 19 8.506 0 19 0z" fill="#7B4AE2" fill-opacity=".5"/><path d="M10.707 26.106h3.557V14.247h-3.557v11.859zm13.86-12.27c-1.727 0-3.272.631-4.367 2.023v-1.65h-3.571v11.897h3.57v-6.434c0-1.36 1.246-2.686 2.806-2.686s1.946 1.326 1.946 2.653v6.466h3.557v-6.73c0-4.676-2.213-5.538-3.941-5.538zm-12.098-.774a1.782 1.782 0 10-.002-3.563 1.782 1.782 0 00.002 3.563z" fill="#090E16"/></g><defs><clipPath id="clip0_21_3379"><path fill="#fff" d="M0 0h38v38H0z"/></clipPath></defs></svg>